<svg xmlns="http://www.w3.org/2000/svg" viewBox="0 0 200 200" width="200" height="200">
  <!-- Ashoka Chakra inspired emblem for Legal Metrology -->
  <circle cx="100" cy="100" r="90" fill="none" stroke="#D4AF37" stroke-width="3"/>
  <circle cx="100" cy="100" r="80" fill="none" stroke="#D4AF37" stroke-width="1.5"/>
  <circle cx="100" cy="100" r="35" fill="none" stroke="#D4AF37" stroke-width="2"/>
  <circle cx="100" cy="100" r="10" fill="#D4AF37"/>
  <!-- 24 spokes -->
  <g stroke="#D4AF37" stroke-width="1.5">
    <line x1="100" y1="20" x2="100" y2="65" />
    <line x1="100" y1="135" x2="100" y2="180" />
    <line x1="20" y1="100" x2="65" y2="100" />
    <line x1="135" y1="100" x2="180" y2="100" />
    <line x1="43.4" y1="43.4" x2="75.5" y2="75.5" />
    <line x1="124.5" y1="124.5" x2="156.6" y2="156.6" />
    <line x1="156.6" y1="43.4" x2="124.5" y2="75.5" />
    <line x1="75.5" y1="124.5" x2="43.4" y2="156.6" />
    <line x1="68.4" y1="25.9" x2="82.3" y2="68.3" />
    <line x1="117.7" y1="131.7" x2="131.6" y2="174.1" />
    <line x1="25.9" y1="131.6" x2="68.3" y2="117.7" />
    <line x1="131.7" y1="82.3" x2="174.1" y2="68.4" />
    <line x1="131.6" y1="25.9" x2="117.7" y2="68.3" />
    <line x1="82.3" y1="131.7" x2="68.4" y2="174.1" />
    <line x1="25.9" y1="68.4" x2="68.3" y2="82.3" />
    <line x1="131.7" y1="117.7" x2="174.1" y2="131.6" />
    <line x1="34.2" y1="65.8" x2="71.7" y2="79.2" />
    <line x1="128.3" y1="120.8" x2="165.8" y2="134.2" />
    <line x1="65.8" y1="165.8" x2="79.2" y2="128.3" />
    <line x1="120.8" y1="71.7" x2="134.2" y2="34.2" />
    <line x1="34.2" y1="134.2" x2="71.7" y2="120.8" />
    <line x1="128.3" y1="79.2" x2="165.8" y2="65.8" />
    <line x1="134.2" y1="165.8" x2="120.8" y2="128.3" />
    <line x1="79.2" y1="71.7" x2="65.8" y2="34.2" />
  </g>
  <!-- LM text -->
  <text x="100" y="108" text-anchor="middle" font-family="serif" font-size="22" font-weight="bold" fill="#D4AF37">LM</text>
</svg>
